<svg width="29" height="76" viewBox="0 0 29 76" fill="none" xmlns="http://www.w3.org/2000/svg">
<circle cx="14.9459" cy="61.9459" r="13.4459" fill="white" stroke="#0A525D"/>
<path d="M14.3143 0C6.42857 0 0 6.64286 0 14.7857C0 25.0286 13.2429 40.7571 13.8 41.4L14.3143 42L14.8286 41.4C15.3857 40.7143 28.7143 24.9857 28.6714 14.7857C28.5857 6.64286 22.1571 0 14.3143 0ZM27.3429 14.7857C27.3857 23.4857 16.7571 36.9857 14.3143 39.9857C11.8714 36.9857 1.32857 23.4857 1.32857 14.7857C1.28571 7.37143 7.15714 1.28571 14.3143 1.28571C21.4714 1.28571 27.3 7.37143 27.3429 14.7857Z" fill="#0A525D"/>
<ellipse cx="14.1645" cy="16.2857" rx="10.7143" ry="10.2857" fill="#6DBFBC"/>
</svg>
