<svg width="15" height="16" viewBox="0 0 15 16" fill="none" xmlns="http://www.w3.org/2000/svg">
<g clip-path="url(#clip0_462_10382)">
<path d="M14.115 15.1394H0.88501V3.91943H3.88501C4.16501 3.91943 4.40501 4.14943 4.40501 4.42943C4.40501 4.70943 4.17501 4.94943 3.88501 4.94943H1.91501V14.1094H13.075V4.94943H11.105C10.815 4.94943 10.585 4.71943 10.585 4.42943C10.585 4.13943 10.815 3.91943 11.105 3.91943H14.105V15.1394" fill="white"/>
<path d="M7.86499 11.4595L7.89499 11.4295C7.89499 11.4295 7.87499 11.4495 7.86499 11.4595ZM7.13499 11.4595C7.13499 11.4595 7.12499 11.4495 7.11499 11.4395L7.13499 11.4595ZM7.50499 10.3395L6.98499 9.7895V1.0095C6.98499 0.719502 7.21499 0.489502 7.50499 0.489502C7.79499 0.489502 8.02499 0.719502 8.02499 1.0095V9.7795L7.50499 10.3295" fill="white"/>
<path d="M7.49502 11.8496L7.12502 11.4496L7.10502 11.4296L3.35502 7.39955C3.15502 7.19955 3.17502 6.86955 3.38502 6.66955C3.48502 6.57955 3.60502 6.53955 3.73502 6.53955C3.87502 6.53955 4.01502 6.58955 4.11502 6.69955L6.97502 9.77955L7.49502 10.3296L8.01502 9.77955L10.875 6.69955C10.975 6.58955 11.115 6.53955 11.255 6.53955C11.385 6.53955 11.505 6.57955 11.605 6.66955C11.815 6.86955 11.825 7.18955 11.635 7.39955L7.89502 11.4296L7.86502 11.4596L7.50502 11.8496" fill="white"/>
</g>
<defs>
<clipPath id="clip0_462_10382">
<rect width="13.23" height="14.65" fill="white" transform="translate(0.88501 0.489502)"/>
</clipPath>
</defs>
</svg>
