<svg width="33" height="28" viewBox="0 0 33 28" fill="none" xmlns="http://www.w3.org/2000/svg">
<path fill-rule="evenodd" clip-rule="evenodd" d="M7.67933 0.000559992C7.40877 0.0053088 7.16202 0.159121 7.03459 0.402363L2.63864 8.58135C2.63472 8.58531 2.63079 8.589 2.62687 8.59296L0.082943 13.6515C-0.0279961 13.8702 -0.0277367 14.1301 0.0832062 14.3488L2.62713 19.4073C2.63105 19.4113 2.63472 19.4155 2.63864 19.4192L7.03459 27.5982C7.16202 27.8412 7.40877 27.995 7.67933 28H32.2498C32.4476 28.001 32.6378 27.9219 32.7786 27.78C32.9194 27.6383 32.9989 27.4452 33 27.2436V0.768268C33.0021 0.564597 32.9238 0.368571 32.7828 0.223997C32.6417 0.079686 32.4497 -0.00104343 32.2498 1.01851e-05L7.67933 0.000559992ZM26.4233 7.5413C26.7507 7.53787 27.0424 7.74867 27.1442 8.06209C27.2463 8.37578 27.1348 8.71981 26.8687 8.91241L20.3391 14.6686L26.9155 20.5545C27.2261 20.8317 27.2552 21.3106 26.9802 21.624C26.7049 21.9372 26.23 21.9665 25.9194 21.6892L19.2141 15.6851L12.5791 21.6776C12.4354 21.8333 12.2334 21.9206 12.0225 21.9185C11.8116 21.9167 11.6112 21.8251 11.4704 21.6665C11.3299 21.508 11.2618 21.2972 11.283 21.0856C11.3045 20.874 11.4133 20.6812 11.5826 20.5545L18.0769 14.6802L11.5473 8.91246C11.3241 8.72172 11.2312 8.41753 11.3094 8.1334C11.3874 7.849 11.6221 7.63635 11.911 7.5886C11.9576 7.58412 12.0047 7.58412 12.0515 7.5886C12.2289 7.5923 12.3993 7.65931 12.5322 7.77777L19.2022 13.6637L25.8841 7.77777C26.0246 7.62818 26.2192 7.54288 26.4233 7.5413Z" fill="#0A525D"/>
</svg>
