<svg width="20" height="21" viewBox="0 0 20 21" fill="none" xmlns="http://www.w3.org/2000/svg">
<path d="M18.7897 13.9839C18.5 13.9843 18.2222 14.0997 18.0173 14.3045C17.8125 14.5095 17.6971 14.7873 17.6966 15.0771V17.7008C17.6962 17.8746 17.6269 18.0413 17.504 18.1641C17.3811 18.2871 17.2145 18.3563 17.0407 18.3568H3.04736C2.87357 18.3563 2.70696 18.2871 2.58413 18.1641C2.46115 18.0412 2.39189 17.8746 2.39145 17.7008V15.0771C2.39145 14.6865 2.18311 14.3256 1.8449 14.1303C1.50669 13.9351 1.08998 13.9351 0.751634 14.1303C0.413423 14.3256 0.205078 14.6865 0.205078 15.0771V17.7008C0.205957 18.4543 0.505808 19.1768 1.03859 19.7096C1.57139 20.2424 2.29393 20.5423 3.04738 20.5431H17.0407C17.7942 20.5423 18.5167 20.2424 19.0495 19.7096C19.5823 19.1768 19.8822 18.4543 19.883 17.7008V15.0771C19.8826 14.7872 19.7672 14.5095 19.5624 14.3045C19.3574 14.0997 19.0797 13.9843 18.7898 13.9839H18.7897Z" fill="#0a525d"/>
<path d="M10.044 0.865238C9.75425 0.865677 9.47634 0.981049 9.27155 1.18588C9.06657 1.39086 8.95119 1.66861 8.95076 1.95849V11.8682L5.49631 8.98992C5.27347 8.8047 4.98622 8.71539 4.69761 8.7416C4.40918 8.76781 4.1427 8.90749 3.95705 9.12987C3.77169 9.35271 3.68238 9.63981 3.70859 9.92842C3.73494 10.217 3.87448 10.4833 4.09686 10.6691L9.34428 15.0421C9.39948 15.0812 9.45804 15.1152 9.51924 15.1436C9.55921 15.1704 9.60094 15.1942 9.64428 15.2152C9.89904 15.3225 10.1863 15.3225 10.4411 15.2152C10.4832 15.1942 10.5242 15.1705 10.5635 15.1444C10.6247 15.1159 10.6832 15.0819 10.7384 15.043L15.9858 10.67C16.2172 10.4775 16.359 10.1981 16.3778 9.89781C16.3967 9.59738 16.2907 9.30249 16.0851 9.08274C15.8795 8.86297 15.5924 8.73765 15.2914 8.73633C15.0358 8.73677 14.7883 8.82652 14.5917 8.98991L11.1372 11.8682V1.95849C11.1368 1.66859 11.0214 1.39083 10.8165 1.18588C10.6116 0.981049 10.3337 0.865673 10.044 0.865234L10.044 0.865238Z" fill="#0a525d"/>
</svg>
