<svg width="22" height="22" viewBox="0 0 22 22" fill="none" xmlns="http://www.w3.org/2000/svg">
<path d="M15.7292 13.5426H14.7746L14.4362 13.2164C15.6204 11.8389 16.3333 10.0506 16.3333 8.10514C16.3333 3.76723 12.8171 0.250977 8.47917 0.250977C4.14125 0.250977 0.625 3.76723 0.625 8.10514C0.625 12.4431 4.14125 15.9593 8.47917 15.9593C10.4246 15.9593 12.2129 15.2464 13.5904 14.0622L13.9167 14.4006V15.3551L19.9583 21.3847L21.7587 19.5843L15.7292 13.5426ZM8.47917 13.5426C5.47042 13.5426 3.04167 11.1139 3.04167 8.10514C3.04167 5.09639 5.47042 2.66764 8.47917 2.66764C11.4879 2.66764 13.9167 5.09639 13.9167 8.10514C13.9167 11.1139 11.4879 13.5426 8.47917 13.5426Z" fill="#67B95F"/>
</svg>
