<svg width="30" height="76" viewBox="0 0 30 76" fill="none" xmlns="http://www.w3.org/2000/svg">
<circle cx="14.2174" cy="61.1352" r="13.4459" fill="white" stroke="#0A525D"/>
<path d="M15.0203 0.382141C7.13463 0.382141 0.706055 7.025 0.706055 15.1679C0.706055 25.4107 13.9489 41.1393 14.5061 41.7821L15.0203 42.3821L15.5346 41.7821C16.0918 41.0964 29.4203 25.3679 29.3775 15.1679C29.2918 7.025 22.8632 0.382141 15.0203 0.382141ZM28.0489 15.1679C28.0918 23.8679 17.4632 37.3679 15.0203 40.3679C12.5775 37.3679 2.03463 23.8679 2.03463 15.1679C1.99177 7.75357 7.8632 1.66786 15.0203 1.66786C22.1775 1.66786 28.0061 7.75357 28.0489 15.1679Z" fill="#0A525D"/>
<path fill-rule="evenodd" clip-rule="evenodd" d="M7.57685 23.9409C11.761 28.1251 18.4093 28.2608 22.4261 24.244C26.4429 20.2272 26.3072 13.5789 22.123 9.39474L7.57685 23.9409Z" fill="#6DBFBC"/>
<path fill-rule="evenodd" clip-rule="evenodd" d="M22.1224 9.39475C22.1223 9.39473 22.1223 9.3947 22.1223 9.39467C17.9381 5.21049 11.2899 5.07481 7.27305 9.09163C3.25623 13.1084 3.3919 19.7567 7.57609 23.9409C7.57612 23.9409 7.57615 23.9409 7.57617 23.9409L22.1224 9.39475Z" fill="#F7A193"/>
</svg>
