<svg width="250" height="41" viewBox="0 0 250 41" fill="none" xmlns="http://www.w3.org/2000/svg">
<g clip-path="url(#clip0_201_68)">
<path d="M124.522 0V22.5937H119.585V0H124.522ZM130.805 6.23642V8.51717H130.893C131.46 7.5728 132.185 6.87788 133.088 6.45024C133.991 6.0226 134.911 5.80878 135.849 5.80878C137.035 5.80878 138.026 5.96914 138.787 6.30769C139.548 6.62842 140.149 7.0917 140.592 7.66189C141.034 8.24989 141.335 8.94481 141.512 9.78227C141.689 10.6197 141.778 11.5463 141.778 12.5441V22.6115H137.318V13.3459C137.318 11.9917 137.105 10.9939 136.681 10.3168C136.256 9.65754 135.513 9.31899 134.451 9.31899C133.23 9.31899 132.362 9.67536 131.814 10.4059C131.265 11.1365 131 12.3303 131 14.0052V22.5758H126.54V6.23642H130.787H130.805ZM147.122 18.5311C147.317 18.8874 147.583 19.1547 147.883 19.3864C148.184 19.618 148.556 19.7784 148.963 19.8853C149.37 19.9922 149.795 20.0456 150.237 20.0456C150.556 20.0456 150.874 20.01 151.228 19.9387C151.582 19.8674 151.883 19.7427 152.166 19.5824C152.449 19.422 152.68 19.2082 152.874 18.9409C153.069 18.6736 153.157 18.3529 153.157 17.9431C153.157 17.266 152.715 16.7671 151.83 16.4285C150.945 16.09 149.706 15.7514 148.113 15.4129C147.459 15.2703 146.822 15.0921 146.22 14.8961C145.6 14.7001 145.052 14.4329 144.574 14.1121C144.096 13.7914 143.707 13.3816 143.406 12.8827C143.105 12.3837 142.963 11.7779 142.963 11.0652C142.963 10.0139 143.176 9.14081 143.583 8.46371C143.99 7.78662 144.539 7.25206 145.193 6.86006C145.866 6.46806 146.609 6.20078 147.459 6.04042C148.29 5.88005 149.158 5.80878 150.043 5.80878C150.927 5.80878 151.777 5.89787 152.609 6.05824C153.441 6.2186 154.166 6.50369 154.821 6.91352C155.476 7.30552 156.007 7.84007 156.431 8.51717C156.856 9.17645 157.122 10.0139 157.192 11.0296H152.945C152.874 10.1565 152.556 9.58627 151.972 9.26554C151.388 8.96263 150.697 8.80226 149.901 8.80226C149.653 8.80226 149.37 8.80226 149.087 8.85571C148.786 8.89135 148.521 8.96263 148.29 9.06954C148.043 9.17645 147.848 9.33681 147.671 9.53281C147.512 9.72881 147.423 9.99609 147.423 10.3346C147.423 10.7266 147.565 11.0652 147.866 11.3146C148.167 11.5641 148.538 11.7779 149.016 11.9383C149.494 12.0987 150.025 12.2412 150.627 12.3659C151.228 12.4907 151.848 12.6332 152.485 12.7758C153.14 12.9183 153.759 13.0965 154.379 13.3103C154.998 13.5241 155.547 13.8092 156.024 14.1478C156.502 14.5041 156.892 14.9318 157.192 15.4485C157.493 15.9652 157.635 16.6067 157.635 17.3551C157.635 18.4242 157.423 19.3329 156.998 20.0635C156.573 20.794 156.007 21.382 155.317 21.8275C154.626 22.2729 153.83 22.5758 152.945 22.754C152.06 22.9322 151.14 23.0213 150.22 23.0213C149.299 23.0213 148.361 22.9322 147.459 22.7362C146.556 22.5402 145.76 22.2373 145.052 21.7918C144.344 21.3464 143.778 20.7584 143.317 20.0278C142.875 19.2973 142.627 18.3885 142.574 17.2838H146.822C146.822 17.7649 146.928 18.1925 147.122 18.5311ZM170.006 22.5937V20.3129H169.917C169.351 21.2573 168.625 21.9522 167.723 22.362C166.82 22.7897 165.9 23.0035 164.962 23.0035C163.776 23.0035 162.785 22.8431 162.024 22.5224C161.263 22.2017 160.661 21.7562 160.219 21.186C159.776 20.598 159.476 19.9031 159.299 19.0656C159.122 18.2282 159.033 17.3016 159.033 16.3038V6.23642H163.493V15.4663C163.493 16.8205 163.705 17.8183 164.13 18.4954C164.555 19.1547 165.298 19.4933 166.36 19.4933C167.581 19.4933 168.448 19.1369 168.997 18.4063C169.546 17.6758 169.811 16.482 169.811 14.807V6.23642H174.271V22.5937H170.023H170.006ZM181.032 0V22.5937H176.572V0H181.032ZM183.916 8.6419C184.376 7.94698 184.96 7.39461 185.668 6.96697C186.376 6.53933 187.19 6.23642 188.075 6.05824C188.96 5.88005 189.863 5.79096 190.765 5.79096C191.579 5.79096 192.411 5.84442 193.243 5.96914C194.075 6.09387 194.854 6.30769 195.544 6.64624C196.234 6.98479 196.8 7.44807 197.243 8.05389C197.685 8.65971 197.898 9.44372 197.898 10.4415V18.9587C197.898 19.6893 197.933 20.402 198.021 21.0791C198.11 21.7562 198.252 22.2551 198.464 22.5937H193.933C193.845 22.3442 193.774 22.0769 193.721 21.8275C193.668 21.5602 193.632 21.2929 193.615 21.0256C192.907 21.7562 192.057 22.2729 191.102 22.5758C190.146 22.8787 189.155 23.0213 188.146 23.0213C187.367 23.0213 186.642 22.9322 185.969 22.7362C185.297 22.5402 184.713 22.2551 184.217 21.8453C183.722 21.4533 183.315 20.9366 183.031 20.3307C182.748 19.7249 182.607 18.9944 182.607 18.1391C182.607 17.2125 182.766 16.4463 183.102 15.8405C183.421 15.2347 183.845 14.7536 184.359 14.3972C184.872 14.0409 185.456 13.7736 186.111 13.5954C186.766 13.4172 187.438 13.2747 188.111 13.1678C188.783 13.0608 189.438 12.9718 190.093 12.9183C190.748 12.847 191.314 12.7579 191.827 12.6332C192.323 12.5085 192.73 12.3303 193.013 12.0808C193.314 11.8314 193.438 11.4928 193.42 11.0296C193.42 10.5485 193.349 10.1565 193.19 9.87136C193.031 9.58627 192.818 9.37245 192.553 9.21208C192.287 9.05172 191.986 8.94481 191.65 8.89135C191.296 8.8379 190.925 8.82008 190.535 8.82008C189.65 8.82008 188.96 9.01608 188.465 9.39027C187.969 9.76445 187.668 10.4059 187.58 11.2968H183.12C183.191 10.2455 183.438 9.37245 183.899 8.67753L183.916 8.6419ZM192.73 14.9852C192.447 15.0743 192.146 15.1634 191.827 15.2169C191.509 15.2881 191.155 15.3416 190.801 15.3772C190.447 15.4129 190.093 15.4663 189.739 15.5376C189.403 15.6089 189.066 15.6801 188.748 15.787C188.429 15.894 188.146 16.0365 187.898 16.2147C187.651 16.3929 187.456 16.6245 187.314 16.8918C187.173 17.1591 187.102 17.5154 187.102 17.9431C187.102 18.3707 187.173 18.6736 187.314 18.9587C187.456 19.226 187.668 19.4576 187.916 19.6002C188.164 19.7427 188.465 19.8674 188.801 19.9387C189.137 20.01 189.473 20.0278 189.845 20.0278C190.73 20.0278 191.402 19.8853 191.88 19.5824C192.358 19.2794 192.712 18.9409 192.942 18.5311C193.172 18.1213 193.314 17.7114 193.367 17.2838C193.42 16.8561 193.438 16.5176 193.438 16.2681V14.5932C193.243 14.7536 193.013 14.8961 192.73 14.9852ZM209.047 6.23642V9.24772H205.773V17.3551C205.773 18.1213 205.897 18.6202 206.145 18.8696C206.393 19.1191 206.906 19.2438 207.649 19.2438C207.897 19.2438 208.145 19.2438 208.375 19.2082C208.605 19.1904 208.817 19.1547 209.03 19.1191V22.5937C208.658 22.6649 208.233 22.7006 207.773 22.7184C207.313 22.7362 206.87 22.754 206.428 22.754C205.738 22.754 205.083 22.7006 204.463 22.6115C203.844 22.5224 203.295 22.3264 202.835 22.0591C202.357 21.7918 201.986 21.3998 201.72 20.8831C201.455 20.3842 201.313 19.7071 201.313 18.8874V9.2299H198.605V6.2186H201.313V1.33638H205.773V6.23642H209.047ZM210.675 3.70621V0H215.135V3.70621H210.675ZM215.135 6.23642V22.5937H210.675V6.23642H215.135ZM216.887 10.8692C217.277 9.80009 217.843 8.89135 218.586 8.14298C219.312 7.39461 220.197 6.80661 221.223 6.39678C222.25 5.98696 223.4 5.77314 224.674 5.77314C225.949 5.77314 227.117 5.98696 228.143 6.39678C229.187 6.80661 230.072 7.39461 230.798 8.14298C231.524 8.89135 232.09 9.80009 232.497 10.8692C232.886 11.9383 233.099 13.1143 233.099 14.4329C233.099 15.7514 232.904 16.9274 232.497 17.9787C232.108 19.03 231.541 19.9387 230.798 20.6871C230.072 21.4355 229.187 22.0057 228.143 22.4155C227.099 22.8253 225.949 23.0213 224.674 23.0213C223.4 23.0213 222.25 22.8253 221.223 22.4155C220.197 22.0057 219.312 21.4355 218.586 20.6871C217.861 19.9387 217.294 19.03 216.887 17.9787C216.498 16.9274 216.286 15.7514 216.286 14.4329C216.286 13.1143 216.48 11.9383 216.887 10.8692ZM220.94 16.3394C221.064 16.9631 221.276 17.5154 221.577 18.0143C221.878 18.5133 222.285 18.9053 222.781 19.2082C223.276 19.5111 223.913 19.6536 224.674 19.6536C225.435 19.6536 226.055 19.5111 226.568 19.2082C227.081 18.9053 227.488 18.5133 227.789 18.0143C228.09 17.5154 228.303 16.9631 228.426 16.3394C228.55 15.7158 228.621 15.0743 228.621 14.4329C228.621 13.7914 228.55 13.1321 228.426 12.5085C228.303 11.867 228.09 11.3146 227.789 10.8336C227.488 10.3525 227.081 9.96045 226.568 9.63972C226.055 9.33681 225.418 9.17645 224.674 9.17645C223.931 9.17645 223.294 9.33681 222.781 9.63972C222.285 9.94263 221.878 10.3346 221.577 10.8336C221.276 11.3146 221.064 11.8848 220.94 12.5085C220.816 13.1321 220.746 13.7914 220.746 14.4329C220.746 15.0743 220.816 15.7336 220.94 16.3394ZM238.974 6.23642V8.51717H239.063C239.629 7.5728 240.355 6.87788 241.257 6.45024C242.16 6.0226 243.08 5.80878 244.018 5.80878C245.204 5.80878 246.195 5.96914 246.956 6.30769C247.717 6.62842 248.319 7.0917 248.761 7.66189C249.204 8.24989 249.505 8.94481 249.682 9.78227C249.859 10.6197 249.947 11.5463 249.947 12.5441V22.6115H245.487V13.3459C245.487 11.9917 245.275 10.9939 244.85 10.3168C244.425 9.65754 243.682 9.31899 242.62 9.31899C241.399 9.31899 240.532 9.67536 239.983 10.4059C239.434 11.1365 239.169 12.3303 239.169 14.0052V22.5758H234.709V6.23642H238.957H238.974ZM16.2821 0.0890917V4.20513H5.38021V9.35463H14.8309V13.1499H5.38021V22.3442H0.424805V0.0890917H16.2821ZM22.1755 0.0890917V22.3442H17.6979V0.0890917H22.1755ZM29.29 18.4776C29.9625 19.1191 30.9359 19.4398 32.1925 19.4398C33.0951 19.4398 33.8738 19.2082 34.5286 18.7627C35.1834 18.3173 35.5728 17.8362 35.732 17.3372H39.6787C39.0415 19.2794 38.0859 20.6515 36.7762 21.4889C35.4666 22.3264 33.8915 22.7362 32.0332 22.7362C30.7412 22.7362 29.5909 22.5402 28.5644 22.1304C27.5379 21.7206 26.653 21.1504 25.9451 20.402C25.2372 19.6536 24.6709 18.7627 24.2815 17.7292C23.8922 16.6958 23.6975 15.5554 23.6975 14.3081C23.6975 13.0608 23.8922 11.9739 24.2992 10.9405C24.7063 9.907 25.2726 8.99826 25.9982 8.24989C26.7415 7.4837 27.6087 6.8957 28.6352 6.45024C29.6617 6.00478 30.7943 5.79096 32.0332 5.79096C33.4313 5.79096 34.6348 6.05824 35.6613 6.59279C36.6877 7.12734 37.5372 7.84007 38.2097 8.73099C38.8646 9.6219 39.3601 10.6375 39.6433 11.7957C39.9441 12.9361 40.0503 14.1299 39.9618 15.3772H28.1751C28.2458 16.8027 28.5998 17.854 29.2723 18.4954L29.29 18.4776ZM34.3693 9.99609C33.8384 9.40808 33.0243 9.12299 31.927 9.12299C31.2191 9.12299 30.6174 9.24772 30.1395 9.47936C29.6617 9.711 29.29 10.0139 29.0069 10.3703C28.7237 10.7266 28.529 11.1008 28.4051 11.4928C28.2812 11.8848 28.2282 12.2412 28.1928 12.5619H35.4843C35.2719 11.4394 34.9002 10.5841 34.3693 9.99609ZM50.9699 6.2186V9.17645H47.6781V17.1591C47.6781 17.9074 47.802 18.4063 48.0498 18.6558C48.2975 18.9053 48.8108 19.03 49.5718 19.03C49.8195 19.03 50.0673 19.03 50.2974 18.9944C50.5275 18.9765 50.7575 18.9409 50.9522 18.9053V22.3264C50.5806 22.3977 50.1558 22.4333 49.6957 22.4511C49.2355 22.4689 48.7754 22.4867 48.3329 22.4867C47.6427 22.4867 46.9879 22.4333 46.3508 22.3442C45.7313 22.2551 45.1827 22.0769 44.7049 21.7918C44.227 21.5246 43.8554 21.1326 43.5899 20.6336C43.3244 20.1347 43.1828 19.4754 43.1828 18.6736V9.19426H40.4574V6.23642H43.1828V1.38983H47.6604V6.23642H50.9522L50.9699 6.2186ZM59.695 9.12299C58.987 9.12299 58.3853 9.28336 57.8898 9.60409C57.4119 9.92482 57.0049 10.3346 56.704 10.8514C56.4032 11.3681 56.1908 11.9205 56.0492 12.5441C55.9253 13.1499 55.8545 13.7736 55.8545 14.3616C55.8545 14.9496 55.9253 15.5376 56.0492 16.1434C56.1731 16.7492 56.3855 17.2838 56.6686 17.7827C56.9518 18.2638 57.3411 18.6736 57.819 18.9765C58.2968 19.2973 58.8985 19.4398 59.5888 19.4398C60.6683 19.4398 61.4824 19.1369 62.0665 18.5489C62.6505 17.9609 63.0044 17.1591 63.1637 16.1612H67.4997C67.1988 18.2994 66.367 19.9387 64.9689 21.0613C63.5708 22.1838 61.801 22.754 59.6242 22.754C58.403 22.754 57.288 22.558 56.2616 22.1482C55.2351 21.7384 54.3679 21.1682 53.66 20.4555C52.9521 19.7249 52.3857 18.8518 51.9787 17.854C51.5716 16.8383 51.377 15.7336 51.377 14.5398C51.377 13.3459 51.5539 12.1343 51.9256 11.0652C52.2972 9.99609 52.8282 9.06954 53.5538 8.28553C54.2617 7.50152 55.1466 6.8957 56.1731 6.46806C57.1996 6.04042 58.3853 5.80878 59.7127 5.80878C60.686 5.80878 61.6063 5.93351 62.5089 6.18296C63.4115 6.43242 64.2079 6.80661 64.9158 7.32334C65.6237 7.84007 66.1901 8.46371 66.6325 9.2299C67.075 9.99609 67.3227 10.887 67.3935 11.9205H63.0044C62.7036 10.0674 61.6063 9.14081 59.695 9.14081V9.12299ZM73.2692 0.0890917V8.48153H73.3577C73.924 7.53716 74.6497 6.86006 75.5345 6.43242C76.4194 6.00478 77.2866 5.79096 78.1184 5.79096C79.3219 5.79096 80.2953 5.95133 81.074 6.27206C81.835 6.59279 82.4544 7.03824 82.8969 7.60843C83.3393 8.17862 83.6579 8.87353 83.8348 9.69318C84.0118 10.5128 84.1003 11.4216 84.1003 12.4194V22.3264H79.6227V13.239C79.6227 11.9027 79.4104 10.9226 78.9856 10.2634C78.5609 9.60409 77.8176 9.28336 76.738 9.28336C75.5168 9.28336 74.632 9.63972 74.0833 10.3525C73.5347 11.0652 73.2692 12.2412 73.2692 13.8983V22.3442H68.7916V0.0890917H73.2692ZM91.091 18.4776C91.7635 19.1191 92.7369 19.4398 93.9934 19.4398C94.896 19.4398 95.6747 19.2082 96.3295 18.7627C96.9844 18.3173 97.3737 17.8362 97.533 17.3372H101.48C100.842 19.2794 99.8868 20.6515 98.5772 21.4889C97.2675 22.3264 95.6924 22.7362 93.8341 22.7362C92.5422 22.7362 91.3918 22.5402 90.3654 22.1304C89.3389 21.7206 88.454 21.1504 87.7461 20.402C87.0382 19.6536 86.4718 18.7627 86.0825 17.7292C85.6931 16.6958 85.4984 15.5554 85.4984 14.3081C85.4984 13.0608 85.6931 11.9739 86.1002 10.9405C86.5072 9.907 87.0735 8.99826 87.7992 8.24989C88.5425 7.4837 89.4097 6.8957 90.4361 6.45024C91.4626 6.00478 92.5953 5.79096 93.8341 5.79096C95.2323 5.79096 96.4357 6.05824 97.4622 6.59279C98.4887 7.12734 99.3382 7.84007 100.011 8.73099C100.666 9.6219 101.161 10.6375 101.444 11.7957C101.745 12.9361 101.851 14.1299 101.763 15.3772H89.976C90.0468 16.8027 90.4007 17.854 91.0733 18.4954L91.091 18.4776ZM96.1702 9.99609C95.6393 9.40808 94.8252 9.12299 93.7279 9.12299C93.02 9.12299 92.4183 9.24772 91.9405 9.47936C91.4626 9.711 91.091 10.0139 90.8078 10.3703C90.5246 10.7266 90.33 11.1008 90.2061 11.4928C90.0822 11.8848 90.0291 12.2412 89.9937 12.5619H97.2852C97.0728 11.4394 96.7012 10.5841 96.1702 9.99609ZM107.461 6.2186V9.21208H107.532C107.745 8.71317 108.028 8.24989 108.382 7.82225C108.736 7.39461 109.143 7.03824 109.621 6.73533C110.081 6.43242 110.576 6.20078 111.107 6.04042C111.638 5.88005 112.187 5.79096 112.753 5.79096C113.054 5.79096 113.373 5.84442 113.727 5.95133V10.0674C113.514 10.0317 113.266 9.99609 112.966 9.96045C112.665 9.92482 112.381 9.907 112.116 9.907C111.302 9.907 110.594 10.0495 110.028 10.3168C109.461 10.5841 109.001 10.9583 108.647 11.4216C108.293 11.8848 108.046 12.4372 107.904 13.0608C107.762 13.6845 107.692 14.3616 107.692 15.0921V22.362H103.214V6.23642H107.479L107.461 6.2186Z" fill="#004443"/>
<path d="M107.762 41.0001H0V29.2935H107.762V41.0001ZM2.26533 37.6503H5.06159C6.58361 37.6503 7.25612 37.0444 7.25612 35.9932V35.9575C7.25612 35.1201 6.76058 34.6924 6.07037 34.5677C6.74289 34.4073 7.09684 33.9797 7.09684 33.2848V33.2491C7.09684 32.3582 6.53051 31.6811 5.06159 31.6811H2.26533V37.6681V37.6503ZM4.1059 33.9975V32.8928H4.67224C5.13238 32.8928 5.32706 33.0709 5.32706 33.4273V33.4629C5.32706 33.8371 5.15008 33.9975 4.67224 33.9975H4.1059ZM4.1059 36.403V35.1379H4.65454C5.18547 35.1379 5.39785 35.3517 5.39785 35.7437V35.7793C5.39785 36.1892 5.16778 36.403 4.68993 36.403H4.08821H4.1059ZM9.34447 37.7572C10.0701 37.7572 10.4771 37.4364 10.7249 36.9732V37.6503H12.3708V33.2669H10.7249V35.7615C10.7249 36.2782 10.4771 36.5277 10.0701 36.5277C9.68073 36.5277 9.52145 36.2961 9.52145 35.8506V33.2669H7.87555V36.1357C7.87555 37.2226 8.49498 37.7572 9.32677 37.7572H9.34447ZM13.999 32.9462C14.4946 32.9462 14.8839 32.5899 14.8839 32.1266C14.8839 31.6633 14.4946 31.2891 13.999 31.2891C13.5035 31.2891 13.1141 31.6455 13.1141 32.1266C13.1141 32.6077 13.5035 32.9462 13.999 32.9462ZM13.1849 37.6503H14.8131V33.2669H13.1849V37.6503ZM15.6449 37.6503H17.2731V31.3782H15.6449V37.6503ZM19.7154 37.7572C20.3702 37.7572 20.8304 37.4008 21.0428 36.9375V37.6324H22.6887V31.3604H21.0428V33.855C20.795 33.4095 20.3879 33.1422 19.7154 33.1422C18.7243 33.1422 17.9102 33.9084 17.9102 35.423V35.4942C17.9102 37.0266 18.742 37.7393 19.7154 37.7393V37.7572ZM20.3171 36.5099C19.8393 36.5099 19.5561 36.1713 19.5561 35.4942V35.423C19.5561 34.728 19.8216 34.3895 20.3171 34.3895C20.8127 34.3895 21.0782 34.7637 21.0782 35.423V35.4942C21.0782 36.1713 20.795 36.5277 20.3171 36.5277V36.5099ZM24.3169 32.9462C24.8124 32.9462 25.2018 32.5899 25.2018 32.1266C25.2018 31.6633 24.8124 31.2891 24.3169 31.2891C23.8213 31.2891 23.432 31.6455 23.432 32.1266C23.432 32.6077 23.8213 32.9462 24.3169 32.9462ZM23.5028 37.6503H25.131V33.2669H23.5028V37.6503ZM25.9451 37.6503H27.591V35.227C27.591 34.7102 27.8387 34.4608 28.2458 34.4608C28.6528 34.4608 28.7944 34.6924 28.7944 35.1379V37.6503H30.4403V34.7637C30.4403 33.6768 29.874 33.1422 29.0422 33.1422C28.3166 33.1422 27.8387 33.4986 27.6087 33.9619V33.2669H25.9628V37.6503H25.9451ZM33.2897 39.2717C34.9179 39.2717 35.7674 38.5768 35.7674 37.2761V33.2669H34.1215V33.8728C33.8737 33.4273 33.4667 33.1422 32.7941 33.1422C31.8031 33.1422 30.989 33.9262 30.989 35.2448V35.3161C30.989 36.6702 31.8208 37.4008 32.8118 37.4008C33.4667 37.4008 33.9091 37.0444 34.1392 36.6346V37.3117C34.1392 37.775 33.9268 38.1492 33.3074 38.1492C32.7941 38.1492 32.6526 37.8997 32.5995 37.6324H30.9713C31.0951 38.6659 31.8031 39.2895 33.3074 39.2895L33.2897 39.2717ZM33.4136 36.2248C32.918 36.2248 32.6526 35.8684 32.6526 35.3339V35.2626C32.6526 34.7102 32.918 34.3717 33.4136 34.3717C33.9091 34.3717 34.1746 34.7281 34.1746 35.2626V35.3161C34.1746 35.8684 33.8914 36.2248 33.4136 36.2248ZM38.2451 37.6503H41.0413C42.5634 37.6503 43.2536 37.0444 43.2536 35.9932V35.9575C43.2536 35.1201 42.758 34.6924 42.0678 34.5677C42.7403 34.4073 43.0943 33.9797 43.0943 33.2848V33.2491C43.0943 32.3582 42.528 31.6811 41.059 31.6811H38.2451V37.6681V37.6503ZM40.0857 33.9975V32.8928H40.652C41.1121 32.8928 41.3068 33.0709 41.3068 33.4273V33.4629C41.3068 33.8371 41.1298 33.9975 40.652 33.9975H40.0857ZM40.0857 36.403V35.1379H40.6343C41.1652 35.1379 41.3776 35.3517 41.3776 35.7437V35.7793C41.3776 36.1892 41.1475 36.403 40.6697 36.403H40.068H40.0857ZM46.0675 37.7572C47.448 37.7572 48.209 37.1692 48.3329 36.1713H46.8109C46.7578 36.4208 46.5808 36.6346 46.1206 36.6346C45.6605 36.6346 45.3419 36.3495 45.3065 35.815H48.3329V35.4051C48.3329 33.8371 47.2887 33.1244 46.0675 33.1244C44.7402 33.1244 43.6606 33.9975 43.6606 35.423V35.4942C43.6606 36.9375 44.6871 37.7393 46.0675 37.7393V37.7572ZM45.3242 34.9597C45.395 34.4608 45.6782 34.2113 46.0675 34.2113C46.51 34.2113 46.7401 34.4964 46.7578 34.9597H45.3242ZM50.6867 37.7393C51.0406 37.7393 51.3592 37.6681 51.5539 37.6146V36.3673C51.4123 36.4208 51.2884 36.4386 51.1468 36.4386C50.8814 36.4386 50.7221 36.3139 50.7221 36.011V34.3539H51.5539V33.2491H50.7221V32.3582H49.0762V33.2491H48.5629V34.3539H49.0762V36.1535C49.0762 37.2583 49.6602 37.7215 50.6867 37.7215V37.7393ZM53.9962 37.7393C54.3501 37.7393 54.6687 37.6681 54.8634 37.6146V36.3673C54.7218 36.4208 54.5979 36.4386 54.4563 36.4386C54.1909 36.4386 54.0316 36.3139 54.0316 36.011V34.3539H54.8634V33.2491H54.0316V32.3582H52.3857V33.2491H51.8724V34.3539H52.3857V36.1535C52.3857 37.2583 52.9697 37.7215 53.9962 37.7215V37.7393ZM57.6242 37.7393C59.0047 37.7393 59.7657 37.1513 59.8896 36.1535H58.3676C58.3145 36.403 58.1375 36.6168 57.6773 36.6168C57.2172 36.6168 56.8986 36.3317 56.8632 35.7972H59.8896V35.3873C59.8896 33.8193 58.8454 33.1066 57.6242 33.1066C56.2969 33.1066 55.2173 33.9797 55.2173 35.4051V35.4764C55.2173 36.9197 56.2438 37.7215 57.6242 37.7215V37.7393ZM56.8809 34.9419C56.9517 34.443 57.2349 34.1935 57.6242 34.1935C58.0667 34.1935 58.2968 34.4786 58.2968 34.9419H56.8632H56.8809ZM60.4913 37.6324H62.1372V35.619C62.1372 34.9953 62.6327 34.6924 63.5353 34.7459V33.2135C62.8805 33.2135 62.4204 33.4808 62.1372 34.1579V33.2669H60.4913V37.6503V37.6324ZM64.1725 38.6481L65.4113 36.5455L63.907 36.011L63.2345 38.2917L64.1902 38.6481H64.1725ZM68.8978 37.6324H70.7915V33.1066H72.2958V31.6455H67.3935V33.1066H68.8978V37.6324ZM74.4903 37.7393C75.8531 37.7393 76.9149 36.9019 76.9149 35.4586V35.3873C76.9149 33.9797 75.853 33.1422 74.508 33.1422C73.163 33.1422 72.0834 34.0153 72.0834 35.4408V35.5121C72.0834 36.9553 73.1453 37.7572 74.508 37.7572L74.4903 37.7393ZM74.4903 36.5277C73.9594 36.5277 73.7116 36.1535 73.7116 35.4408V35.3695C73.7116 34.6924 73.9948 34.336 74.4903 34.336C74.9859 34.336 75.2336 34.7102 75.2336 35.3873V35.4408C75.2336 36.1357 74.9859 36.5099 74.4903 36.5099V36.5277ZM79.5696 39.2539C81.1978 39.2539 82.0473 38.559 82.0473 37.2583V33.2491H80.4014V33.855C80.1536 33.4095 79.7466 33.1244 79.0741 33.1244C78.083 33.1244 77.2689 33.9084 77.2689 35.227V35.2982C77.2689 36.6524 78.1007 37.383 79.0918 37.383C79.7466 37.383 80.189 37.0266 80.4191 36.6168V37.2939C80.4191 37.7572 80.2067 38.1314 79.5873 38.1314C79.0741 38.1314 78.9325 37.8819 78.8794 37.6146H77.2512C77.3751 38.6481 78.083 39.2717 79.5873 39.2717L79.5696 39.2539ZM79.6935 36.207C79.1979 36.207 78.9325 35.8506 78.9325 35.3161V35.2448C78.9325 34.6924 79.1979 34.3539 79.6935 34.3539C80.189 34.3539 80.4545 34.7102 80.4545 35.2448V35.2982C80.4545 35.8506 80.1713 36.207 79.6935 36.207ZM85.0205 37.7393C86.401 37.7393 87.162 37.1513 87.2859 36.1535H85.7638C85.7108 36.403 85.5338 36.6168 85.0913 36.6168C84.6489 36.6168 84.3126 36.3317 84.2772 35.7972H87.3036V35.3873C87.3036 33.8193 86.2594 33.1066 85.0382 33.1066C83.7109 33.1066 82.6313 33.9797 82.6313 35.4051V35.4764C82.6313 36.9197 83.6578 37.7215 85.0382 37.7215L85.0205 37.7393ZM84.2772 34.9419C84.348 34.443 84.6312 34.1935 85.0205 34.1935C85.463 34.1935 85.6931 34.4786 85.7108 34.9419H84.2772ZM89.6397 37.7215C89.9936 37.7215 90.3122 37.6503 90.5069 37.5968V36.3495C90.3653 36.403 90.2414 36.4208 90.0998 36.4208C89.8344 36.4208 89.6751 36.2961 89.6751 35.9932V34.336H90.5069V33.2313H89.6751V32.3404H88.0292V33.2313H87.5159V34.336H88.0292V36.1357C88.0292 37.2404 88.6132 37.7037 89.6397 37.7037V37.7215ZM91.1794 37.6146H92.8253V35.1913C92.8253 34.6746 93.0731 34.4251 93.4801 34.4251C93.8872 34.4251 94.0288 34.6568 94.0288 35.1022V37.6146H95.6747V34.728C95.6747 33.6411 95.1083 33.1066 94.2765 33.1066C93.5509 33.1066 93.0731 33.4629 92.843 33.9262V31.3247H91.1971V37.5968L91.1794 37.6146ZM98.6125 37.7215C99.9929 37.7215 100.754 37.1335 100.878 36.1357H99.3558C99.3027 36.3852 99.1257 36.599 98.6833 36.599C98.2408 36.599 97.9046 36.3139 97.8692 35.7793H100.896V35.3695C100.896 33.8015 99.8513 33.0888 98.6302 33.0888C97.3029 33.0888 96.2233 33.9619 96.2233 35.3873V35.4586C96.2233 36.9019 97.2498 37.7037 98.6302 37.7037L98.6125 37.7215ZM97.8692 34.9241C97.94 34.4251 98.2232 34.1757 98.6125 34.1757C99.055 34.1757 99.285 34.4608 99.3027 34.9241H97.8692ZM101.48 37.6146H103.125V35.6011C103.125 34.9775 103.621 34.6746 104.524 34.728V33.1957C103.869 33.1957 103.409 33.4629 103.125 34.14V33.2491H101.48V37.6324V37.6146Z" fill="#004443"/>
</g>
<defs>
<clipPath id="clip0_201_68">
<rect width="250" height="41" fill="white"/>
</clipPath>
</defs>
</svg>
