<svg id="Group_24" data-name="Group 24" xmlns="http://www.w3.org/2000/svg" xmlns:xlink="http://www.w3.org/1999/xlink" width="86.386" height="75.235" viewBox="0 0 86.386 75.235">
  <defs>
    <clipPath id="clip-path">
      <rect id="Rectangle_13" data-name="Rectangle 13" width="86.386" height="75.235" fill="none"/>
    </clipPath>
  </defs>
  <g id="Group_24-2" data-name="Group 24" clip-path="url(#clip-path)">
    <path id="Path_4" data-name="Path 4" d="M84.947,35.715H76.308a1.375,1.375,0,1,1,0-2.747h4.641L43.193,3.156,5.438,32.968h4.641a1.375,1.375,0,1,1,0,2.747H1.44a1.436,1.436,0,0,1-1.354-.908,1.334,1.334,0,0,1,.436-1.524L42.275.315a1.5,1.5,0,0,1,1.836,0L85.865,33.283a1.334,1.334,0,0,1,.436,1.524,1.436,1.436,0,0,1-1.354.908" transform="translate(-0.001 0)" fill="#76ad1c"/>
    <path id="Path_5" data-name="Path 5" d="M172.987,263.724a1.373,1.373,0,0,1-1.374-1.374V241.745H155.129V262.35a1.374,1.374,0,0,1-2.747,0V240.372A1.373,1.373,0,0,1,153.756,239h19.231a1.373,1.373,0,0,1,1.374,1.374V262.35a1.4,1.4,0,0,1-1.374,1.374" transform="translate(-120.178 -188.49)" fill="#dfdfdf"/>
    <path id="Path_6" data-name="Path 6" d="M75.756,191.956a1.336,1.336,0,0,1-1.374-1.374v-41.21a1.374,1.374,0,0,1,2.747,0v41.21a1.4,1.4,0,0,1-1.374,1.374" transform="translate(-58.663 -116.721)" fill="#76ad1c"/>
    <path id="Path_7" data-name="Path 7" d="M173.958,122.394a1.372,1.372,0,0,0-.971-.4H153.756a1.373,1.373,0,0,0-1.374,1.374v16.486a1.374,1.374,0,0,0,1.374,1.374h19.231a1.373,1.373,0,0,0,1.374-1.374V123.366a1.374,1.374,0,0,0-.4-.971m-2.345,7.841h-6.868v-5.5h6.868ZM162,124.74v5.5h-6.868v-5.495Zm-6.868,8.242H162v5.5h-6.868Zm9.616,5.5v-5.5h6.868v5.5Z" transform="translate(-120.178 -96.211)" fill="#dfdfdf"/>
    <path id="Path_8" data-name="Path 8" d="M322.374,191.956A1.336,1.336,0,0,1,321,190.582v-41.21a1.374,1.374,0,1,1,2.747,0v41.21a1.4,1.4,0,0,1-1.374,1.374" transform="translate(-253.162 -116.721)" fill="#76ad1c"/>
  </g>
</svg>
